<?xml version="1.0" encoding="utf-8"?>
<!-- Generator: Adobe Illustrator 21.0.1, SVG Export Plug-In . SVG Version: 6.00 Build 0)  -->
<svg version="1.1" id="Слой_1" xmlns="http://www.w3.org/2000/svg" xmlns:xlink="http://www.w3.org/1999/xlink" x="0px" y="0px"
	 viewBox="0 0 494.9 110.1" style="enable-background:new 0 0 494.9 110.1;" xml:space="preserve">
<style type="text/css">
	.st0{fill:#064590;}
	.st1{fill-rule:evenodd;clip-rule:evenodd;fill:#FF7C00;}
</style>
<path class="st0" d="M55,0C70.3,0,84,6.2,94,16.1c9.9,9.9,16.1,23.7,16.1,38.9c0,15.2-6.2,29-16.1,38.9c-10,9.9-23.7,16.1-38.9,16.1
	c-15.2,0-29-6.2-38.9-16.1C6.2,84,0,70.3,0,55c0-15.2,6.2-29,16.1-38.9C26.1,6.2,39.9,0,55,0L55,0z M86.2,23.9
	C78.2,16,67.2,11,55,11S31.9,16,23.9,23.9S11,42.9,11,55S16,78.2,23.9,86.2s19,12.9,31.1,12.9s23.2-4.9,31.1-12.9s12.9-19,12.9-31.1
	S94.1,31.9,86.2,23.9L86.2,23.9z"/>
<path class="st0" d="M69.6,24.8v9.4c0,0.8,0.4,1.4,1.1,1.8l16.8,9c0.7,0.4,1.1,1,1.1,1.8v24.7c0,0.8-0.4,1.5-1.1,1.8L58.2,88.8V77
	c0-0.8,0.4-1.5,1.1-1.8L76,66.5c0.7-0.4,1.1-1,1.1-1.8v-11c0-0.8-0.4-1.4-1.1-1.8L59.2,43c-0.7-0.4-1.1-1-1.1-1.8V17l10.5,6
	C69.3,23.4,69.6,24.1,69.6,24.8L69.6,24.8z"/>
<path class="st0" d="M40.5,24.8v9.4c0,0.8-0.4,1.4-1.1,1.8l-16.8,9c-0.7,0.4-1.1,1-1.1,1.8v24.7c0,0.8,0.4,1.5,1.1,1.8l29.3,15.4V77
	c0-0.8-0.4-1.5-1.1-1.8l-16.6-8.6c-0.7-0.4-1.1-1-1.1-1.8v-11c0-0.8,0.4-1.4,1.1-1.8L50.9,43c0.7-0.4,1.1-1,1.1-1.8V17l-10.5,6
	C40.8,23.4,40.5,24.1,40.5,24.8L40.5,24.8z"/>
<path class="st1" d="M55.4,48.8c5.7,0,10.3,4.6,10.3,10.3c0,5.7-4.6,10.3-10.3,10.3S45.2,64.7,45.2,59
	C45.2,53.4,49.7,48.8,55.4,48.8L55.4,48.8z"/>
<path class="st1" d="M312.8,46.3c5.7,0,10.3,4.6,10.3,10.2c0,5.7-4.6,10.3-10.3,10.3c-5.6,0-10.2-4.6-10.2-10.3
	C302.6,50.9,307.2,46.3,312.8,46.3L312.8,46.3z"/>
<path class="st0" d="M145,89.8c-7,0-12-1.8-14.9-5.6c-2.9-3.7-4.4-9-4.4-16V45c0-7.1,1.4-12.5,4.4-16.2c2.9-3.6,7.9-5.4,15-5.4
	c6.7,0,11.5,1.6,14.3,4.8c2.8,3.3,4.2,7.9,4.2,13.8v5.6h-13.9v-6.4c0-2.5-0.3-4.4-0.8-5.8c-0.5-1.3-1.8-2-3.8-2c-2,0-3.3,0.7-4,2.1
	c-0.6,1.4-0.9,3.3-0.9,5.8v30.4c0,2.6,0.3,4.5,1,5.9c0.7,1.4,2,2,3.9,2c2,0,3.2-0.7,3.8-2c0.5-1.4,0.8-3.3,0.8-5.9V65h13.9v5.6
	c0,6.1-1.4,10.8-4.2,14.1C156.5,88.1,151.7,89.8,145,89.8L145,89.8z M171.4,24.3H210v64.5h-14V34.5h-10.6v54.3h-14V24.3z
	 M219.6,24.3h29V34h-14.7v16h11.2v9.9h-11.2v19.3h14.9v9.6h-29.2V24.3z M291.3,88.9h-35.9V24.3h14.3v54.9h10.8V24.3h14.3v54.9h8.8
	v23.6h-10.4L291.3,88.9z M348.8,89.8c-7,0-12-1.8-14.9-5.6c-2.9-3.7-4.4-9-4.4-16V45c0-7.1,1.5-12.5,4.4-16.2
	c2.9-3.6,7.9-5.4,15-5.4c6.7,0,11.5,1.6,14.3,4.8c2.8,3.3,4.2,7.9,4.2,13.8v5.6h-13.9v-6.4c0-2.5-0.3-4.4-0.8-5.8
	c-0.5-1.3-1.8-2-3.8-2s-3.3,0.7-4,2.1c-0.7,1.4-1,3.3-1,5.8v30.4c0,2.6,0.3,4.5,1,5.9c0.7,1.4,2,2,3.9,2c2,0,3.2-0.7,3.8-2
	c0.5-1.4,0.8-3.3,0.8-5.9V65h13.9v5.6c0,6.1-1.4,10.8-4.2,14.1C360.3,88.1,355.5,89.8,348.8,89.8L348.8,89.8z M375.4,24.3h11.3v37
	l16.5-37h9.2v64.5h-11.5V51.3l-16.8,37.6h-8.7V24.3z M428,34.9h-9.7V24.3H452v10.6h-9.6v53.9H428V34.9z M457.9,24.3h11.3v37l16.5-37
	h9.2v64.5h-11.5V51.3l-16.8,37.6h-8.7V24.3z"/>
</svg>
