<svg xmlns="http://www.w3.org/2000/svg" xmlns:xlink="http://www.w3.org/1999/xlink" width="85" height="20" viewbox="0 0 85 20" xml:space="preserve">

 <g>
  <title>Trans inform logo</title>
  <g id="svg_1">
   <polygon id="svg_2" points="27.60699462890625,15.65899658203125 27.561004638671875,15.719024658203125 27.10400390625,15.719024658203125 27.10400390625,10.402008056640625 25.826995849609375,10.402008056640625 25.826995849609375,16.722015380859375 28.313995361328125,16.722015380859375 32.3280029296875,11.40301513671875 32.7860107421875,11.40301513671875 32.7860107421875,16.722015380859375 34.063018798828125,16.722015380859375 34.063018798828125,10.402008056640625 31.6199951171875,10.402008056640625 " fill="#000000"/>
   <polygon id="svg_3" points="41.337005615234375,12.936004638671875 36.553009033203125,12.936004638671875 36.553009033203125,10.402008056640625 35.27899169921875,10.402008056640625 35.27899169921875,16.722015380859375 36.553009033203125,16.722015380859375 36.553009033203125,13.96099853515625 41.337005615234375,13.96099853515625 41.337005615234375,16.722015380859375 42.61199951171875,16.722015380859375 42.61199951171875,10.402008056640625 41.337005615234375,10.402008056640625 " fill="#000000"/>
   <path id="svg_4" d="m53.496002,10.834015c-0.201996,-0.156006 -0.434998,-0.268005 -0.674988,-0.321991c-0.337006,-0.072021 -0.69101,-0.109009 -1.054016,-0.109009l-5.688995,0c-0.360992,0 -0.716003,0.036987 -1.053986,0.109009c-0.242004,0.054993 -0.473999,0.165985 -0.693024,0.337982c-0.074982,0.078003 -0.263977,0.295013 -0.371979,0.644012c-0.10202,0.350983 -0.151001,0.720978 -0.151001,1.128998l0,1.402985c0,0.401001 0.044983,0.744019 0.126984,0.984009c0.062012,0.266998 0.171997,0.472992 0.348999,0.647003c0.154999,0.15799 0.377014,0.281982 0.666992,0.371002c0.320007,0.067993 0.710022,0.104004 1.128021,0.104004l2.217987,0l0,0.589996l1.277008,0l0,-0.589996l2.194,0c0.424988,0 0.811005,-0.037018 1.152985,-0.111023c0.258026,-0.079987 0.490021,-0.207977 0.673004,-0.371979c0.153015,-0.152008 0.276001,-0.378021 0.335999,-0.617004c0.076019,-0.25 0.110016,-0.56601 0.110016,-1.027008l0,-1.404999c0,-0.437988 -0.044006,-0.811981 -0.132996,-1.117004c-0.114014,-0.29599 -0.243011,-0.500977 -0.411011,-0.648987zm-0.781006,3.574982c-0.053009,0.18399 -0.102997,0.333008 -0.221008,0.449005c-0.141998,0.108002 -0.306,0.179993 -0.484009,0.208008c-0.148987,0.042999 -0.367981,0.063995 -0.649994,0.063995l-1.78598,0l0,-3.705017l1.766998,0c0.248993,0 0.445984,0 0.653992,0.051025c0.190002,0.026001 0.333984,0.126984 0.432983,0.205994c0.128021,0.123993 0.209015,0.260986 0.264008,0.442993c0.048004,0.170013 0.072021,0.382996 0.072021,0.632996l0,1.085999c-0.001007,0.206024 -0.018005,0.39801 -0.049011,0.565002zm-4.419006,-2.983978l0,3.705017l-1.78598,0c-0.227997,0 -0.467987,-0.017029 -0.649994,-0.044006c-0.187988,-0.050995 -0.345001,-0.122009 -0.458008,-0.205017c-0.140991,-0.136993 -0.195007,-0.277985 -0.240997,-0.42099c-0.056,-0.187988 -0.056,-0.386017 -0.056,-0.615997l0,-1.085999c0,-0.234009 0.024994,-0.451996 0.072998,-0.627991c0.053009,-0.179016 0.132996,-0.320007 0.23999,-0.429016c0.144012,-0.118011 0.284027,-0.201996 0.515015,-0.233002c0.145996,-0.042999 0.365997,-0.042999 0.598999,-0.042999l1.763977,0z" fill="#000000"/>
   <path id="svg_5" d="m62.710999,10.746002c-0.166992,-0.144989 -0.420013,-0.265991 -0.675018,-0.324005c-0.304993,-0.071991 -0.661987,-0.109009 -1.033997,-0.109009l-3.61499,0c-0.415985,0 -0.795013,0.037018 -1.128998,0.110016c-0.306,0.087006 -0.527008,0.197998 -0.700012,0.350983c-0.148987,0.14801 -0.27298,0.373016 -0.359985,0.652008c-0.084991,0.306 -0.127991,0.678009 -0.127991,1.104004l0,2.084991c0,0.382019 0.041992,0.708008 0.128998,0.998016c0.095001,0.277008 0.221985,0.481995 0.384979,0.625c0.156006,0.156006 0.39502,0.286987 0.697021,0.378998c0.322998,0.067993 0.705994,0.105011 1.105988,0.105011l3.61499,0c0.518005,0 0.851013,-0.032013 1.112,-0.107025c0.279022,-0.078003 0.511017,-0.195984 0.688995,-0.354004c0.132019,-0.130981 0.240021,-0.332001 0.344025,-0.638977c0.065002,-0.287994 0.10199,-0.645996 0.10199,-1.007019l0,-2.084991c0,-0.470001 -0.042999,-0.830994 -0.131012,-1.105988c-0.109985,-0.316986 -0.235992,-0.526001 -0.406982,-0.678009zm-0.738983,1.921021l0,1.765991c0,0.253021 -0.022003,0.447021 -0.075012,0.622009c-0.017975,0.131012 -0.095978,0.273987 -0.214996,0.393982c-0.122986,0.121002 -0.290985,0.177002 -0.444,0.221008c-0.23999,0.035004 -0.445007,0.050995 -0.664978,0.050995l-2.801025,0c-0.394989,0 -0.641998,-0.028992 -0.824982,-0.097992c-0.200012,-0.075989 -0.348999,-0.205994 -0.462006,-0.398987c-0.098999,-0.247009 -0.136017,-0.502014 -0.114014,-0.78302l-0.000977,-1.778992c-0.021027,-0.205994 -0.003021,-0.428009 0.047974,-0.618011c0.042023,-0.126984 0.120026,-0.306 0.245026,-0.434998c0.117981,-0.119995 0.28299,-0.173981 0.454987,-0.220978c0.161987,-0.041016 0.321014,-0.061005 0.487,-0.061005c0.062012,0 0.126007,0.001984 0.200012,0.007996l2.72998,0c0.052002,-0.006012 0.118011,-0.007996 0.182007,-0.007996c0.169006,0 0.325012,0.019989 0.476013,0.062988c0.162994,0.020996 0.328003,0.104004 0.449005,0.225006c0.120972,0.096985 0.208984,0.239014 0.258972,0.424988c0.049011,0.166992 0.071014,0.360992 0.071014,0.627014z" fill="#000000"/>
   <path id="svg_6" d="m70.095001,10.588013c-0.30899,-0.144012 -0.686005,-0.216003 -1.119995,-0.216003c-0.054993,0 -0.110016,0.002014 -0.164001,0.003998l-4.391998,0l0,6.320007l1.277008,0l0,-1.946991l3.127991,0c0.505005,0 0.945007,-0.081024 1.272003,-0.233002c0.311005,-0.146027 0.528992,-0.372009 0.667999,-0.688019c0.15799,-0.339996 0.238007,-0.776001 0.238007,-1.298004c0,-0.5 -0.082001,-0.937988 -0.235016,-1.270996c-0.143005,-0.306 -0.363007,-0.524994 -0.671997,-0.67099zm-0.5,2.609985c-0.046997,0.169006 -0.188995,0.313995 -0.402985,0.408997c-0.113007,0.07901 -0.337006,0.119019 -0.664001,0.119019l-2.831024,0l0,-2.348022l2.831024,0c0.220978,0 0.395996,0.02301 0.547974,0.072998c0.159027,0.055023 0.294006,0.133026 0.381012,0.223022c0.098999,0.097992 0.164001,0.22699 0.200989,0.401978c0.047028,0.134003 0.047028,0.289001 0.047028,0.453003c-0.001007,0.302032 -0.034027,0.511017 -0.110016,0.669006z" fill="#000000"/>
   <polygon id="svg_7" points="79.40899658203125,10.3170166015625 77.18600463867188,15.634002685546875 77.00399780273438,15.634002685546875 74.82199096679688,10.36102294921875 74.80499267578125,10.3170166015625 71.94900512695312,10.3170166015625 71.94900512695312,16.8070068359375 73.39599609375,16.8070068359375 73.39599609375,11.488006591796875 73.739990234375,11.488006591796875 75.989013671875,16.76300048828125 76.00799560546875,16.8070068359375 78.18099975585938,16.8070068359375 80.47100830078125,11.488006591796875 80.79299926757812,11.488006591796875 80.79299926757812,16.8070068359375 82.26199340820312,16.8070068359375 82.26199340820312,10.3170166015625 " fill="#000000"/>
   <polygon id="svg_8" points="25.83099365234375,9.25201416015625 27.10400390625,9.25201416015625 27.10400390625,3.930999755859375 31.76800537109375,3.930999755859375 31.76800537109375,2.9320068359375 21.1669921875,2.9320068359375 21.1669921875,3.930999755859375 25.83099365234375,3.930999755859375 " fill="#000000"/>
   <path id="svg_9" d="m42.855011,3.141998c-0.306,-0.143005 -0.681,-0.213989 -1.113007,-0.213989c-0.056976,0 -0.11499,0.000977 -0.171997,0.003998l-8.725006,0l0,6.319l1.298004,0l0,-1.947021l7.438995,0c0.505005,0 0.945007,-0.080994 1.274017,-0.233978c0.312988,-0.14502 0.531006,-0.371002 0.669983,-0.688019c0.157013,-0.334991 0.238007,-0.770996 0.238007,-1.296997c0,-0.505005 -0.082001,-0.942993 -0.234985,-1.268982c-0.142029,-0.308014 -0.363007,-0.527008 -0.674011,-0.674011zm-0.463013,2.574005c-0.085999,0.207001 -0.230011,0.354004 -0.442017,0.445007c-0.151001,0.10498 -0.418976,0.118988 -0.661987,0.118988l-7.145996,0l0,-2.350006l7.145996,0c0.221985,0 0.397003,0.024994 0.549988,0.076019c0.150024,0.050995 0.288025,0.130981 0.377014,0.218994c0.108002,0.113007 0.164001,0.23999 0.214996,0.368988l0.01001,0.035004c0.020996,0.139008 0.04599,0.295013 0.020996,0.492004c0.022003,0.179016 -0.003998,0.39801 -0.069,0.595001z" fill="#000000"/>
   <polygon id="svg_10" points="59.522003173828125,6.490020751953125 68.01998901367188,6.490020751953125 68.01998901367188,9.25201416015625 69.29598999023438,9.25201416015625 69.29598999023438,2.9320068359375 68.01998901367188,2.9320068359375 68.01998901367188,5.46600341796875 59.522003173828125,5.46600341796875 59.522003173828125,2.9320068359375 58.24700927734375,2.9320068359375 58.24700927734375,9.25201416015625 59.522003173828125,9.25201416015625 " fill="#000000"/>
   <path id="svg_11" d="m79.928009,9.252014c0.373993,0 0.709015,-0.020996 0.997009,-0.065002c0.270996,-0.045013 0.468994,-0.110016 0.621002,-0.205994c0.16098,-0.100006 0.278992,-0.21701 0.386993,-0.386993c0.069,-0.139008 0.154999,-0.332001 0.200989,-0.598022c0.020996,-0.229004 0.033997,-0.445984 0.039001,-0.645996l0.001007,-0.071991l-1.277008,0l-0.005981,0.063995c-0.011993,0.125 -0.036011,0.230011 -0.072998,0.320007c-0.057007,0.177002 -0.154022,0.307007 -0.294006,0.390991c-0.093994,0.070007 -0.252991,0.126007 -0.434998,0.152008c-0.174011,0.02298 -0.38501,0.046997 -0.636017,0.046997l-6.132996,0c-0.225983,0 -0.406006,-0.020996 -0.567993,-0.041016l-0.066986,-0.009979c-0.178009,-0.054016 -0.335022,-0.106995 -0.457001,-0.229004c-0.121002,-0.095001 -0.206024,-0.233002 -0.261017,-0.423004c-0.049011,-0.183014 -0.072998,-0.402008 -0.072998,-0.653992l-0.001007,-1.658997c-0.020996,-0.257019 -0.002991,-0.482025 0.057007,-0.684021c0.019012,-0.151978 0.101013,-0.319977 0.207001,-0.432007c0.153992,-0.116974 0.320007,-0.186981 0.519012,-0.212982c0.108978,-0.03299 0.276978,-0.053009 0.446991,-0.053009c0.069,0 0.139984,0.003998 0.220001,0.011993l6.117981,-0.001984c0.045013,-0.003998 0.104004,-0.006012 0.160004,-0.006012c0.232025,0 0.445007,0.035004 0.633026,0.105011c0.203979,0.075989 0.371979,0.207001 0.483978,0.376984c0.080994,0.139008 0.128998,0.285004 0.149994,0.457001l0.008026,0.063019l1.278992,0l-0.005005,-0.075012c-0.018005,-0.337006 -0.072998,-0.630005 -0.162994,-0.867981c-0.097015,-0.268005 -0.248016,-0.47702 -0.476013,-0.65802c-0.169006,-0.132996 -0.410004,-0.240997 -0.742004,-0.333984c-0.259979,-0.057007 -0.592987,-0.084015 -1.019989,-0.084015l-6.743988,0c-0.437012,0 -0.838013,0.037018 -1.197021,0.110992c-0.292999,0.078003 -0.527985,0.199005 -0.720001,0.368011c-0.177002,0.160004 -0.297974,0.380005 -0.381989,0.694c-0.085999,0.312012 -0.131989,0.713013 -0.131989,1.160004l0,1.902008c0,0.408997 0.044983,0.776978 0.128998,1.05899c0.061981,0.269989 0.179993,0.493011 0.354004,0.666992c0.184998,0.162994 0.414978,0.279999 0.664001,0.33902c0.271973,0.075989 0.607971,0.108978 1.123993,0.108978l7.062988,0l0,0.002014z" fill="#000000"/>
   <path id="svg_12" d="m46.200012,7.193024l9.475006,0l0,2.05899l1.278992,0l0,-4.234985c0,-0.437012 -0.057983,-0.807007 -0.169983,-1.098022c-0.098022,-0.268982 -0.248016,-0.477997 -0.475006,-0.65799c-0.169006,-0.131989 -0.410004,-0.240997 -0.743011,-0.334991c-0.260986,-0.057007 -0.593994,-0.084015 -1.019989,-0.084015l-7.21701,0c-0.43399,0 -0.835999,0.037018 -1.197998,0.111023c-0.287994,0.075989 -0.522003,0.196991 -0.716003,0.367981c-0.177002,0.157013 -0.298981,0.377991 -0.38501,0.694c-0.085999,0.312012 -0.131989,0.713013 -0.131989,1.160004l0,4.075989l1.300995,0l0,-2.057983l0.001007,0zm9.475006,-2.177002l0,1.138l-9.475006,0l-0.001007,-0.917999c-0.022003,-0.244995 -0.003998,-0.47699 0.057007,-0.68399c0.015991,-0.153015 0.098999,-0.321014 0.209015,-0.433014c0.152985,-0.118011 0.316986,-0.187012 0.513977,-0.212006c0.113007,-0.03299 0.281006,-0.052979 0.449005,-0.052979c0.067993,0 0.139008,0.003998 0.218994,0.011993l6.591003,-0.002014c0.045013,-0.003998 0.104004,-0.005981 0.160004,-0.005981c0.231018,0 0.445007,0.034973 0.634003,0.103973c0.203003,0.076019 0.371002,0.208008 0.483002,0.378021c0.112,0.192993 0.160004,0.393982 0.160004,0.675995z" fill="#000000"/>
  </g>
  <g id="svg_13">
   <path id="svg_14" d="m15.278015,5.682007c-0.033997,0.009003 -0.056,0.041992 -0.052002,0.076996c0.005005,0.035004 0.035004,0.063019 0.070007,0.063019l1.139984,0c0.046997,0 0.112,-0.001007 0.162018,-0.012024l0.037994,-0.014984c0.393982,-0.221008 0.832001,-0.45401 1.341003,-0.713013c0.031982,-0.016998 0.046997,-0.054993 0.033997,-0.088989c-0.013,-0.03299 -0.050018,-0.053009 -0.084015,-0.042999c-0.332977,0.089996 -0.699982,0.19101 -1.115997,0.30899c-0.441986,0.123016 -0.947998,0.266022 -1.53299,0.423004z" fill="#000000"/>
   <path id="svg_15" d="m16.080017,4.195007c-0.009003,-0.036011 -0.045013,-0.059998 -0.083008,-0.053009c-0.945007,0.188019 -3.425995,0.830017 -5.419006,1.346008c-0.574982,0.149017 -1.102997,0.286011 -1.531982,0.395996c-0.583008,0.149017 -1.158997,0.282013 -1.71701,0.411011l-0.042999,0.010986c-1.200012,0.276001 -2.333008,0.538025 -3.298004,0.904999c-0.027985,0.01001 -0.04599,0.037018 -0.04599,0.06601l0,0.820007c0,0.023987 0.011993,0.046997 0.03299,0.059998c0.011993,0.006989 0.024994,0.010986 0.037994,0.010986c0.01001,0 0.021027,-0.001984 0.029999,-0.005981c2.806,-1.311005 6.299011,-2.287994 8.850006,-3.002014l3.138,-0.878998c0.036011,-0.010986 0.057983,-0.048981 0.049011,-0.085999z" fill="#000000"/>
   <path id="svg_16" d="m9.252014,10.292999c0.645996,-0.457001 1.225006,-0.854004 1.718994,-1.182007c0.026001,-0.018005 0.037994,-0.050995 0.028992,-0.079987c-0.008972,-0.028992 -0.036987,-0.050995 -0.067993,-0.050995l-4.957001,0c-0.009979,0 -0.020996,0.001984 -0.029999,0.006989c-0.542999,0.248993 -0.901001,0.455994 -1.279999,0.674988l-0.026001,0.016022c-0.203003,0.117981 -0.412994,0.23999 -0.65799,0.371002c-0.02301,0.011993 -0.037994,0.03598 -0.037994,0.062988l0,0.122986c0,0.039001 0.031982,0.071014 0.070984,0.071014l5.196991,0c0.014008,-0.000977 0.028992,-0.005981 0.041016,-0.013z" fill="#000000"/>
   <path id="svg_17" d="m11.434998,6.822021c-0.877991,0.277985 -1.769989,0.593994 -2.649994,0.936005c-0.032013,0.011993 -0.050018,0.044983 -0.044006,0.078979c0.005981,0.03302 0.036011,0.058014 0.070007,0.058014l4.04599,0c0.011993,0 0.023987,-0.002991 0.035004,-0.01001c0.583984,-0.332977 1.156982,-0.645996 1.704987,-0.931976c0.029022,-0.016022 0.044006,-0.049011 0.036011,-0.080017s-0.036011,-0.054993 -0.069,-0.054993l-3.106995,0c-0.006989,0 -0.014984,0.001984 -0.022003,0.003998z" fill="#000000"/>
   <path id="svg_18" d="m4.144989,12.744019c0.002991,0 0.006012,-0.001007 0.009003,-0.001007l2.230988,-0.289001c0.011017,-0.001984 0.022003,-0.005981 0.032013,-0.013c0.205994,-0.145996 0.416016,-0.298981 0.645996,-0.46698c0.162018,-0.117004 0.334991,-0.243011 0.52301,-0.381012c0.023987,-0.018005 0.035004,-0.049011 0.024994,-0.078003s-0.036987,-0.048981 -0.066986,-0.048981l-3.531006,0c-0.039001,0 -0.071014,0.030975 -0.071014,0.069977l0,1.065002c0,0.022003 0.003998,0.071014 0.022003,0.100006c0.015991,0.027008 0.046997,0.036987 0.076996,0.031006c-0.001984,0 -0.002991,0.002991 -0.005005,0.002991c0.021027,0.003998 0.059021,0.009003 0.109009,0.009003z" fill="#000000"/>
   <path id="svg_19" d="m12.128998,11.166016c0.162994,-0.18399 0.492004,-0.5 0.625,-0.625c0.093994,-0.085999 0.161987,-0.139008 0.227997,-0.156006c0.040985,-0.011993 0.097992,-0.018982 0.17099,-0.018982c0.042999,0 0.076996,0.002991 0.083008,0.002991l0.686005,-0.001007c0.018982,0 0.036987,-0.006989 0.049988,-0.020996l0.35202,-0.35498c0.218994,-0.219025 0.485992,-0.488007 0.710999,-0.71701c0.019989,-0.019989 0.026001,-0.050018 0.014984,-0.076019c-0.009979,-0.024994 -0.03598,-0.042999 -0.063995,-0.043976l-0.411987,-0.007996l-0.062012,-0.112c-0.040009,-0.109009 0.024994,-0.182007 0.102997,-0.244019l0.054016,-0.046997c0.182983,-0.153992 0.265991,-0.220001 0.416992,-0.339996l0.076996,-0.062012c0.016998,-0.015991 0.041992,-0.039001 0.083008,-0.053986c0.03299,-0.01001 0.048004,-0.014008 0.259003,-0.014008l0.186981,0.001007l0.279999,-0.001007c0.011017,-0.001984 0.029022,-0.003998 0.042023,-0.006989c0.014984,-0.003021 0.027985,-0.011017 0.037994,-0.020996c0.11499,-0.124023 0.229004,-0.235016 0.339996,-0.343018l0.039001,-0.037994c0.195007,-0.188995 0.395996,-0.38501 0.596985,-0.56601c0.02002,-0.018005 0.028015,-0.044983 0.020996,-0.069977c-0.026001,-0.098999 -0.052002,-0.223022 -0.054993,-0.236023c0.011993,-0.026978 0.005005,-0.061005 -0.018982,-0.080994s-0.058014,-0.022003 -0.084015,-0.006989c-0.257996,0.161987 -0.52301,0.325989 -0.78299,0.483002c-1.858002,1.123993 -4.436005,3.029999 -6.567993,4.854004c-0.024017,0.020996 -0.032013,0.053986 -0.019012,0.08197c0.010986,0.026001 0.036987,0.04303 0.065002,0.04303c0.001984,0 0.005005,-0.001007 0.007996,-0.001007l2.854004,-0.313019c0.018982,0 0.074005,-0.017975 0.093994,-0.024994c0.027008,-0.014008 0.048004,-0.027985 0.062988,-0.044983c0.084015,-0.096008 0.190002,-0.226013 0.286011,-0.346008c0.016998,-0.020996 0.019989,-0.050995 0.007996,-0.075012c-0.011993,-0.023987 -0.036987,-0.039978 -0.063995,-0.039978l-0.450989,0.001984c-0.007019,0 -0.027008,0.002014 -0.050018,0.002014c-0.179993,0 -0.235992,-0.085999 -0.253998,-0.166016c-0.020996,-0.057007 0,-0.10498 0.027008,-0.160004l0.022003,-0.033997z" fill="#000000"/>
   <!--<path id="svg_20" d="m4.76001,3.265015c-0.380005,-0.007996 -0.609985,-0.011993 -0.622009,-0.011993l-0.042999,-0.003021c-0.151978,0 -0.221985,0.091003 -0.221985,0.286011l0,1.571991c-0.002991,0.06601 0.001007,0.207001 0.04599,0.261993c0.011993,0.016022 0.029999,0.025024 0.049011,0.027008c0.013,0 0.026001,0.001007 0.040985,0.001007c0.114014,0 0.240021,-0.031006 0.417023,-0.07901c0.850983,-0.22699 3.401978,-0.847992 8.690979,-1.734985c0.036011,-0.006012 0.062012,-0.037994 0.059021,-0.075012c-0.002014,-0.03598 -0.032013,-0.063995 -0.069,-0.065002c-0.960022,-0.024994 -6.52002,-0.139984 -8.347015,-0.178986z" fill="#ffffff"/>
   <path id="svg_21" d="m15.091003,11.766022c0.026001,-0.001007 0.046997,-0.003998 0.065002,-0.006012l0.080994,-0.009003c0.42099,-0.042999 1.213989,-0.144989 1.606995,-0.222992c0.345001,-0.070007 0.434021,-0.110992 0.447021,-0.313995c0.017975,-0.221985 0.027985,-0.403992 0.028992,-0.575989c0.002991,-0.818024 -0.011993,-1.453003 -0.020996,-1.759003c-0.001007,-0.028015 -0.019012,-0.054016 -0.045013,-0.063019c-0.024994,-0.009979 -0.056,-0.003998 -0.075989,0.016022c-0.015991,0.015991 -0.036011,0.03598 -0.05899,0.062988c-0.524017,0.662994 -0.803009,1.036987 -1.156006,1.51001l-0.013,0.018005c-0.216003,0.290985 -0.46402,0.623993 -0.820007,1.092987c-0.026001,0.033997 -0.071991,0.095001 -0.10199,0.143005c-0.014008,0.022003 -0.015015,0.050995 -0.001007,0.072998c0.013,0.022003 0.036011,0.03598 0.061981,0.03598c0,-0.001984 0.001007,-0.001984 0.002014,-0.001984z" fill="#ffffff"/>-->
   <path id="svg_22" d="m18.511017,7.484009c-0.03299,-0.003998 -0.070007,0.027008 -0.074005,0.063995c-0.009003,0.089996 -0.014984,0.299011 -0.02301,0.58902c-0.029999,1.082977 -0.121002,4.381989 -0.746002,4.437988l-13.694,1.845001c-0.186981,0.033997 -0.35498,0.050995 -0.502991,0.050995c-0.459991,0 -0.777985,-0.15799 -0.944,-0.471985c-0.131989,-0.252014 -0.131989,-0.549011 -0.131989,-0.746002l-0.015991,-10.343018c0,-0.613007 0.312988,-0.937988 0.901978,-0.937988l13.697998,0.665985c0.001007,0 0.002014,0 0.002014,0c0.001984,0 0.002991,0 0.003998,0c0.039001,0 0.070984,-0.030975 0.070984,-0.069977s-0.031982,-0.070007 -0.070984,-0.070007l-14.743011,-1.498016c-1.095001,0.006012 -1.242004,0.775024 -1.242004,1.527008l0,11.97699c0,0.317017 0.119019,1.35202 1.64502,1.35202c0.100006,0 0.209991,-0.006012 0.341003,-0.016998l14.959991,-2.365997c0.354004,-0.003021 0.631012,-0.334015 0.631012,-0.755005l0,-5.162018c0.000977,-0.039001 -0.028015,-0.069977 -0.06601,-0.071991z" fill="#000000"/>
   <path id="svg_23" d="m10.063995,16.020996c-3.729004,0 -6.018005,0.731995 -6.018005,1.257019s2.290009,1.255981 6.018005,1.255981s6.018005,-0.730988 6.018005,-1.255981s-2.289001,-1.257019 -6.018005,-1.257019z" fill="#000000"/>
  </g>
 </g>
</svg>